<?xml version="1.0" standalone="no"?>
<!DOCTYPE svg PUBLIC "-//W3C//DTD SVG 20010904//EN"
 "http://www.w3.org/TR/2001/REC-SVG-20010904/DTD/svg10.dtd">
<svg version="1.0" xmlns="http://www.w3.org/2000/svg"
 width="1024.000000pt" height="1024.000000pt" viewBox="0 0 1024.000000 1024.000000"
 preserveAspectRatio="xMidYMid meet">
<metadata>
Created by potrace 1.14, written by Peter Selinger 2001-2017
</metadata>
<g transform="translate(0.000000,1024.000000) scale(0.100000,-0.100000)"
fill="#000000" stroke="none">
<path d="M4790 8519 c-732 -60 -1482 -436 -1972 -986 -318 -357 -532 -752
-658 -1213 -133 -491 -130 -1065 10 -1574 120 -436 298 -759 629 -1140 275
-315 733 -631 1162 -799 746 -293 1593 -268 2294 67 335 161 621 364 877 623
490 496 754 1047 833 1743 22 185 16 589 -9 750 -80 500 -268 943 -570 1344
-464 615 -1166 1039 -1916 1156 -241 37 -468 47 -680 29z m431 -435 c67 -20
110 -46 172 -103 67 -63 117 -167 117 -247 0 -37 10 -46 68 -64 54 -17 117
-70 144 -124 30 -57 31 -155 1 -212 -29 -55 -93 -111 -142 -124 -28 -7 -186
-10 -484 -8 -431 3 -443 4 -482 25 -115 62 -171 193 -131 306 30 82 110 154
183 164 l39 5 12 65 c29 152 135 275 275 318 58 19 163 18 228 -1z m-891 -74
c5 -31 9 -35 44 -41 68 -11 75 -59 10 -71 -37 -8 -41 -12 -50 -51 -15 -70 -64
-62 -64 10 0 34 -7 38 -70 45 -19 2 -25 9 -25 28 0 22 6 26 48 34 44 9 47 11
47 41 0 38 7 47 35 43 14 -2 21 -12 25 -38z m1517 -24 c258 -121 415 -372 400
-641 -16 -269 -188 -502 -436 -590 l-41 -14 0 104 0 104 53 24 c148 69 237
221 237 407 0 134 -37 227 -127 321 -30 32 -79 70 -109 86 l-54 28 0 98 c0 71
3 97 13 97 6 0 35 -11 64 -24z m-1963 -207 c29 -41 -16 -83 -60 -54 -28 18
-31 37 -8 59 22 22 50 20 68 -5z m2724 -167 c2 -13 -6 -27 -22 -38 -24 -15
-28 -15 -51 0 -14 9 -25 22 -25 29 0 17 21 43 40 50 21 7 54 -16 58 -41z m192
-81 c5 -11 10 -42 10 -70 0 -42 5 -56 31 -85 27 -31 36 -35 87 -38 53 -3 57
-5 57 -28 0 -23 -4 -25 -57 -31 -86 -9 -109 -36 -118 -133 -3 -41 -10 -62 -22
-70 -28 -17 -42 7 -46 79 -4 57 -8 68 -33 90 -21 17 -47 26 -89 31 -38 4 -61
12 -65 21 -10 27 15 43 66 43 40 0 53 5 83 34 32 30 36 39 36 85 0 57 13 91
35 91 8 0 19 -9 25 -19z m-3571 -78 c49 -61 -28 -125 -86 -71 -28 26 -29 52
-3 78 28 28 64 25 89 -7z m540 3 c8 -9 11 -50 9 -117 -3 -92 -5 -104 -22 -107
-10 -2 -22 0 -27 5 -14 14 -13 201 1 218 15 19 24 19 39 1z m106 -283 c74 -23
126 -57 184 -118 156 -165 156 -412 -2 -569 -93 -93 -207 -134 -350 -124 -104
8 -180 40 -250 106 -175 168 -179 428 -8 601 113 115 268 153 426 104z m-524
-43 c39 -37 41 -41 27 -62 -23 -35 -34 -33 -85 15 -47 45 -47 45 -29 66 27 29
39 27 87 -19z m880 9 c9 -18 6 -26 -27 -60 -47 -48 -78 -49 -82 -3 -2 25 3 37
28 58 38 31 65 33 81 5z m985 -127 c21 -16 177 -121 346 -235 169 -113 370
-250 448 -303 l140 -97 0 -348 c0 -192 2 -349 5 -349 3 0 61 16 128 35 162 46
427 99 645 130 97 14 195 27 216 30 l39 6 -6 -78 c-51 -657 -115 -1036 -232
-1383 -139 -409 -367 -723 -695 -959 l-95 -68 -8 -89 c-4 -49 -11 -92 -15 -95
-19 -18 -399 -89 -607 -114 -172 -21 -675 -33 -675 -16 0 26 105 233 191 376
101 170 242 362 404 551 167 196 674 699 1080 1073 142 130 236 221 231 221
-4 0 -14 -4 -24 -9 -9 -5 -87 -31 -172 -59 -182 -59 -354 -123 -358 -134 -2
-5 -8 -8 -14 -8 -16 0 -136 -59 -143 -70 -3 -6 -13 -10 -22 -10 -18 0 -168
-74 -183 -91 -3 -3 -29 -18 -59 -33 -30 -15 -61 -34 -68 -42 -8 -8 -19 -14
-24 -14 -5 0 -9 -7 -9 -16 0 -8 -4 -12 -10 -9 -5 3 -21 -5 -35 -19 -14 -14
-28 -26 -30 -26 -3 0 -9 0 -13 0 -5 0 -27 -18 -50 -41 -23 -22 -46 -38 -51
-35 -11 7 -36 -22 -27 -31 3 -3 -11 -17 -32 -29 -31 -20 -31 -30 1 -25 4 0 7
-8 7 -19 0 -11 -4 -20 -10 -20 -5 0 -10 -15 -10 -34 0 -19 5 -38 10 -41 6 -3
10 -24 10 -46 0 -27 4 -39 14 -39 22 0 28 -31 11 -56 -9 -13 -13 -24 -10 -24
3 0 -5 -11 -17 -23 -15 -16 -25 -20 -30 -13 -5 7 -8 4 -8 -6 0 -12 -5 -15 -17
-11 -12 5 -15 2 -11 -9 5 -11 -17 -38 -65 -84 -39 -38 -67 -62 -62 -54 4 8 5
12 1 8 -4 -3 -8 -10 -7 -15 0 -14 -41 -53 -51 -47 -5 3 -7 1 -6 -4 2 -6 -24
-43 -57 -83 -101 -123 -131 -164 -184 -251 -70 -117 -98 -181 -126 -294 -26
-102 -57 -317 -49 -339 7 -18 -95 -18 -273 0 -462 48 -815 119 -1019 207 -95
40 -188 88 -182 93 2 1 59 -6 128 -16 69 -10 142 -18 163 -18 l37 -1 0 1164 0
1164 187 163 c103 90 294 259 424 374 129 116 328 291 440 389 112 99 231 205
264 236 33 31 70 63 81 71 12 8 49 38 83 67 34 28 66 52 70 52 4 0 26 -13 47
-28z m1313 0 c5 -10 9 -26 8 -37 -1 -12 5 -20 18 -23 59 -9 65 -13 65 -37 0
-20 -5 -25 -24 -25 -38 0 -56 -10 -56 -32 0 -31 -19 -58 -40 -58 -19 0 -24 11
-32 65 -2 15 -12 21 -41 23 -66 6 -58 62 9 62 31 0 34 3 34 28 0 47 40 70 59
34z m773 -149 c22 -20 23 -51 1 -75 -33 -36 -93 -13 -93 37 0 49 55 72 92 38z
m-4034 -75 c18 -18 14 -46 -7 -58 -11 -5 -58 -10 -104 -10 -71 0 -87 3 -102
20 -17 19 -17 21 0 40 16 17 31 20 110 20 57 0 95 -4 103 -12z m1173 2 c10 -6
19 -19 19 -30 0 -30 -31 -40 -128 -40 -78 0 -91 3 -108 21 -19 21 -18 21 5 40
19 15 40 19 108 19 46 0 93 -5 104 -10z m2536 -125 c75 -22 136 -74 172 -146
17 -34 31 -70 31 -81 0 -15 8 -18 62 -18 119 0 200 -67 201 -168 1 -95 -59
-156 -166 -167 -34 -4 -219 -5 -412 -3 -313 3 -353 5 -383 21 -45 25 -82 84
-88 143 -4 42 -1 56 25 100 37 64 92 94 169 94 50 0 52 1 52 28 0 41 53 124
98 156 77 53 154 66 239 41z m-4263 -97 c43 -62 -8 -135 -75 -108 -29 12 -47
48 -40 80 10 50 87 69 115 28z m716 -126 c44 -36 -3 -108 -49 -76 -25 18 -27
51 -4 76 20 22 25 22 53 0z m704 -8 c21 -21 20 -40 -4 -64 -25 -25 -61 -14
-74 23 -17 48 41 79 78 41z m-353 -219 c6 -101 -1 -135 -30 -135 -30 0 -41 30
-41 115 0 88 11 118 43 113 20 -3 22 -10 28 -93z m-622 54 c41 -21 73 -46 96
-76 35 -45 65 -125 65 -170 0 -20 5 -23 39 -23 44 0 99 -33 118 -70 31 -61 6
-134 -55 -159 -20 -8 -137 -11 -419 -9 -379 3 -392 4 -420 24 -94 69 -105 187
-27 274 45 50 89 64 173 57 l66 -5 18 41 c41 98 116 146 228 147 43 0 70 -7
118 -31z m4443 -616 c32 -32 58 -62 58 -68 0 -6 -28 -39 -63 -73 l-63 -62 -64
65 -64 65 64 65 c35 36 67 65 69 65 3 0 31 -26 63 -57z m-5002 -144 c0 -55 3
-64 31 -90 24 -22 41 -29 73 -29 50 0 80 -18 70 -43 -4 -12 -17 -17 -46 -17
-82 0 -128 -47 -128 -133 0 -70 -22 -94 -54 -61 -11 10 -16 34 -16 73 0 49 -4
62 -25 83 -25 25 -63 38 -112 38 -31 0 -42 29 -18 46 10 8 37 14 60 14 32 0
47 6 68 28 23 24 27 37 27 84 0 66 19 95 51 78 16 -9 19 -22 19 -71z m723
-194 c9 -57 18 -65 70 -65 72 0 61 -61 -13 -70 -46 -5 -48 -8 -64 -83 -5 -22
-12 -28 -29 -25 -18 2 -23 10 -25 45 -4 51 -15 61 -71 65 -81 6 -77 68 5 68
37 0 52 15 60 61 9 55 13 61 36 57 19 -2 24 -12 31 -53z m4187 -315 c62 -62
-23 -148 -87 -88 -28 27 -29 48 -2 82 25 31 61 34 89 6z m-4317 -198 c85 -39
155 -110 199 -199 32 -65 33 -72 33 -188 0 -112 -2 -123 -29 -174 -85 -163
-261 -258 -427 -232 -230 38 -397 254 -359 469 14 83 29 118 81 192 80 114
201 172 349 167 71 -2 97 -8 153 -35z m2477 -317 c0 -2 -6 -5 -13 -8 -8 -3
-14 1 -14 8 0 7 6 11 14 8 7 -3 13 -6 13 -8z m-80 -59 c-7 -7 -13 -7 -20 0 -6
6 -3 10 10 10 13 0 16 -4 10 -10z m-3031 -106 c90 -277 336 -422 596 -351 39
11 80 23 91 26 14 4 25 2 30 -7 13 -20 13 -38 2 -38 -6 0 -16 -6 -22 -14 -19
-24 -108 -47 -198 -53 -263 -17 -455 116 -556 385 -33 86 -33 109 2 122 27 10
30 7 55 -70z m4906 -65 c48 -47 39 -63 -137 -244 -250 -257 -389 -391 -414
-397 -59 -15 -113 29 -100 82 5 19 102 123 285 306 249 250 280 278 309 278
22 0 41 -9 57 -25z"/>
<path d="M5370 4530 c-12 -8 -11 -10 8 -10 12 0 22 5 22 10 0 13 -11 13 -30 0z"/>
<path d="M3084 2106 c-37 -17 -64 -51 -64 -84 0 -33 48 -78 94 -86 21 -4 49
-11 62 -17 21 -7 23 -12 14 -29 -13 -25 -85 -28 -118 -4 -21 15 -24 14 -42 -8
-18 -22 -18 -24 -2 -37 79 -62 190 -49 221 28 27 65 -10 107 -115 130 -42 10
-54 17 -52 29 4 23 72 28 103 8 21 -14 24 -13 46 10 24 25 24 26 4 37 -62 37
-104 43 -151 23z"/>
<path d="M6781 2110 c-134 -32 -165 -209 -49 -280 48 -29 107 -35 153 -15 65
26 75 41 75 107 l0 58 -70 0 c-68 0 -70 -1 -70 -25 0 -22 4 -25 40 -25 33 0
40 -3 40 -20 0 -45 -100 -56 -144 -15 -36 33 -37 95 -1 130 29 30 88 34 123 9
22 -15 25 -15 48 7 18 17 21 25 13 36 -10 11 -103 45 -118 42 -3 -1 -21 -5
-40 -9z"/>
<path d="M3320 1962 c0 -82 2 -151 5 -154 3 -2 17 -3 32 -1 l28 4 -3 85 c-2
51 0 84 6 84 13 0 61 -57 75 -87 6 -13 13 -23 16 -23 4 0 26 27 50 60 24 33
48 60 52 60 5 0 9 -43 9 -95 l0 -95 30 0 30 0 0 155 0 155 -27 0 c-22 0 -40
-14 -82 -65 -29 -36 -56 -65 -60 -65 -3 1 -28 30 -56 65 -40 52 -55 65 -77 65
l-28 0 0 -148z"/>
<path d="M3762 1960 l-71 -150 37 0 c33 0 39 4 49 30 11 29 13 30 82 30 68 0
71 -1 86 -30 12 -23 22 -30 45 -30 17 0 30 3 30 7 0 10 -64 167 -71 173 -3 3
-18 31 -33 63 -24 49 -32 57 -55 57 -26 0 -33 -11 -99 -150z m137 -22 c1 -14
-7 -18 -37 -18 -21 0 -41 3 -45 6 -3 4 6 30 20 58 l26 51 18 -40 c10 -22 18
-48 18 -57z"/>
<path d="M4070 1961 l0 -151 35 0 c35 0 35 0 35 45 0 44 1 45 33 45 28 0 36
-6 57 -45 22 -41 28 -45 62 -45 21 0 38 2 38 5 0 3 -13 26 -29 51 l-28 46 25
25 c21 21 24 31 19 70 -3 31 -13 54 -31 72 -24 24 -34 26 -121 29 l-95 4 0
-151z m174 67 c20 -28 20 -33 0 -52 -10 -10 -33 -16 -65 -16 l-49 0 0 45 0 45
49 0 c40 0 53 -4 65 -22z"/>
<path d="M4360 2080 c0 -29 2 -30 45 -30 l45 0 0 -120 0 -120 30 0 30 0 0 68
c0 37 3 90 6 119 l7 52 41 3 c36 3 41 6 44 31 l3 27 -125 0 -126 0 0 -30z"/>
<path d="M4840 1960 l0 -150 101 0 c98 0 101 1 130 29 34 35 37 68 8 104 -16
21 -18 31 -10 46 19 35 13 68 -20 95 -28 24 -38 26 -120 26 l-89 0 0 -150z
m175 70 c10 -32 -12 -50 -61 -50 -44 0 -44 0 -44 35 l0 35 49 0 c41 0 51 -3
56 -20z m9 -123 c16 -26 -16 -47 -71 -47 -43 0 -43 0 -43 36 l0 35 51 -3 c37
-2 55 -8 63 -21z"/>
<path d="M5160 2010 c0 -65 5 -113 14 -135 30 -71 130 -97 197 -52 51 34 59
59 59 180 l0 108 -32 -3 -33 -3 -3 -105 c-2 -93 -5 -107 -23 -122 -37 -31 -82
-19 -107 29 -7 12 -12 62 -12 112 l0 91 -30 0 -30 0 0 -100z"/>
<path d="M5505 1998 c-4 -62 -5 -131 -3 -153 3 -37 5 -40 33 -40 l30 0 3 153
3 152 -30 0 -29 0 -7 -112z"/>
<path d="M5650 1960 l0 -150 73 -1 c210 -1 283 3 315 18 67 32 93 139 50 203
-42 61 -69 73 -168 78 l-90 4 0 -136 c0 -129 -4 -148 -25 -127 -6 5 -28 11
-50 13 l-40 3 -3 123 -3 122 -29 0 -30 0 0 -150z m373 49 c23 -25 28 -38 23
-62 -12 -58 -74 -99 -126 -82 -18 6 -20 15 -20 95 0 62 4 90 13 93 27 9 83
-13 110 -44z"/>
<path d="M6180 1965 c0 -80 -1 -148 -2 -152 -2 -5 12 -9 30 -11 l32 -3 0 155
0 156 -30 0 -30 0 0 -145z"/>
<path d="M6320 1961 c0 -144 1 -151 20 -152 11 -1 25 -2 32 -3 9 -1 12 22 9
87 -1 48 0 87 3 87 4 0 21 -17 39 -37 80 -93 131 -143 148 -143 18 0 19 11 19
155 l0 155 -30 0 -29 0 -3 -92 -3 -92 -79 89 c-49 56 -89 91 -103 93 l-23 3 0
-150z"/>
<path d="M4640 1925 c0 -26 1 -26 68 -23 59 3 67 5 67 23 0 18 -8 20 -67 23
-67 3 -68 3 -68 -23z"/>
<path d="M3240 1505 c0 -87 2 -95 19 -95 17 0 20 8 23 53 l3 52 24 -40 c14
-22 26 -42 28 -45 2 -2 20 13 38 35 l34 40 1 -47 c0 -34 4 -48 14 -48 16 0 26
50 26 133 0 72 -13 73 -60 7 -19 -27 -38 -49 -42 -50 -3 0 -23 23 -43 50 -55
75 -65 68 -65 -45z"/>
<path d="M3545 1511 c-25 -50 -45 -93 -45 -96 0 -15 40 -2 45 15 5 16 15 20
55 20 39 0 52 -4 60 -20 10 -19 40 -28 40 -12 0 17 -86 177 -97 180 -7 2 -32
-36 -58 -87z m80 -1 l16 -30 -31 0 c-16 0 -30 2 -30 5 0 7 23 55 26 55 2 0 10
-13 19 -30z"/>
<path d="M3752 1508 c3 -79 6 -93 21 -96 15 -3 17 5 17 55 l0 58 56 -57 c31
-32 62 -58 70 -58 11 0 14 20 14 95 0 88 -1 95 -20 95 -18 0 -20 -7 -20 -57
l0 -57 -58 57 c-32 31 -63 57 -70 57 -10 0 -12 -23 -10 -92z"/>
<path d="M4026 1508 c-36 -77 -40 -94 -27 -97 8 -2 22 6 29 18 20 29 96 30
112 1 6 -11 19 -20 29 -20 15 0 10 15 -31 95 -27 52 -54 95 -59 95 -6 0 -30
-42 -53 -92z m84 -20 c0 -5 -11 -8 -25 -8 -27 0 -31 10 -14 42 11 21 12 21 25
-3 7 -13 13 -27 14 -31z"/>
<path d="M4267 1589 c-23 -13 -47 -62 -47 -94 0 -16 12 -38 29 -56 24 -24 38
-29 75 -29 58 0 89 26 84 73 -3 30 -6 32 -45 35 -34 2 -43 0 -43 -12 0 -9 9
-16 19 -16 26 0 36 -17 21 -35 -30 -36 -100 -3 -100 46 0 55 44 79 101 55 21
-9 36 24 17 36 -18 11 -89 9 -111 -3z"/>
<path d="M4470 1505 c0 -87 2 -95 19 -95 17 0 20 8 23 53 l3 52 30 -42 c17
-24 32 -43 35 -42 3 0 19 21 35 47 l30 47 3 -57 c2 -48 6 -58 21 -58 16 0 18
11 19 95 1 88 -1 95 -19 95 -10 0 -19 -3 -19 -7 0 -5 -17 -28 -38 -51 l-38
-44 -34 51 c-20 29 -43 51 -52 51 -16 0 -18 -11 -18 -95z"/>
<path d="M4760 1505 l0 -95 75 0 c60 0 75 3 75 15 0 12 -13 15 -55 15 -52 0
-55 1 -55 25 0 23 4 25 45 25 33 0 45 4 45 15 0 11 -12 15 -44 15 -35 0 -45 4
-49 19 -7 27 0 31 55 31 36 0 48 4 48 15 0 12 -14 15 -70 15 l-70 0 0 -95z"/>
<path d="M4970 1505 c0 -88 1 -95 20 -95 17 0 20 7 20 52 l0 52 53 -52 c78
-77 87 -73 87 43 0 88 -1 95 -20 95 -18 0 -20 -7 -20 -62 l0 -61 -56 61 c-77
86 -84 83 -84 -33z"/>
<path d="M5190 1585 c0 -10 10 -15 30 -15 l30 0 0 -80 c0 -73 2 -80 20 -80 18
0 20 7 20 80 l0 80 29 0 c16 0 31 6 35 15 4 13 -8 15 -79 15 -69 0 -85 -3 -85
-15z"/>
<path d="M5519 1588 c-40 -33 -23 -81 34 -96 41 -11 50 -42 12 -42 -14 0 -35
5 -45 10 -15 8 -21 6 -29 -8 -8 -16 -6 -21 15 -31 56 -25 124 -2 124 43 0 27
-21 47 -64 61 -34 11 -43 41 -11 39 11 -1 27 -4 36 -8 11 -5 19 -1 23 10 8 22
5 25 -41 31 -23 3 -44 -1 -54 -9z"/>
<path d="M5660 1594 c0 -3 18 -26 40 -51 34 -39 40 -53 40 -89 0 -37 3 -44 20
-44 17 0 20 7 20 41 0 29 9 53 30 84 17 24 30 48 30 54 0 21 -25 11 -52 -21
l-28 -33 -27 33 c-17 19 -37 32 -50 32 -13 0 -23 -3 -23 -6z"/>
<path d="M5900 1581 c-5 -11 -10 -29 -10 -40 0 -22 35 -51 61 -51 28 0 42 -25
23 -41 -14 -11 -21 -11 -44 3 -23 13 -31 14 -39 4 -17 -20 21 -48 64 -48 93 0
101 90 11 119 -17 5 -32 15 -34 21 -6 18 28 27 59 15 25 -10 29 -9 29 7 0 22
-19 30 -70 30 -29 0 -42 -5 -50 -19z"/>
<path d="M6060 1585 c0 -10 11 -15 35 -15 l35 0 0 -80 c0 -73 2 -80 20 -80 18
0 20 7 20 80 l0 80 30 0 c20 0 30 5 30 15 0 12 -16 15 -85 15 -69 0 -85 -3
-85 -15z"/>
<path d="M6288 1505 l-3 -95 73 0 c57 0 72 3 72 15 0 11 -12 15 -49 15 -40 0
-50 4 -54 19 -7 27 0 31 45 31 27 0 38 4 38 15 0 11 -11 15 -40 15 -36 0 -40
3 -40 25 0 23 3 25 50 25 38 0 50 4 50 15 0 12 -14 15 -69 15 l-70 0 -3 -95z"/>
<path d="M6500 1505 c0 -90 1 -95 21 -95 20 0 21 4 17 45 -3 25 -3 47 1 50 4
2 18 -14 31 -36 14 -21 28 -39 31 -39 4 0 19 19 35 43 l29 42 3 -52 c2 -38 7
-53 18 -53 11 0 14 17 15 75 1 41 2 83 3 92 2 35 -30 22 -64 -27 -19 -27 -37
-49 -40 -49 -3 0 -21 22 -40 49 -52 73 -60 67 -60 -45z"/>
</g>
</svg>
